<?xml version="1.0" encoding="UTF-8" standalone="no"?>
<!-- Created with Inkscape (http://www.inkscape.org/) -->

<svg
   width="246.76804mm"
   height="53.387619mm"
   viewBox="0 0 246.76804 53.387619"
   version="1.1"
   id="svg1"
   inkscape:version="1.4.4 (dcaf3e7, 2026-05-05)"
   sodipodi:docname="logo.svg"
   xmlns:inkscape="http://www.inkscape.org/namespaces/inkscape"
   xmlns:sodipodi="http://sodipodi.sourceforge.net/DTD/sodipodi-0.dtd"
   xmlns="http://www.w3.org/2000/svg"
   xmlns:svg="http://www.w3.org/2000/svg">
  <sodipodi:namedview
     id="namedview1"
     pagecolor="#ffffff"
     bordercolor="#000000"
     borderopacity="0.25"
     inkscape:showpageshadow="2"
     inkscape:pageopacity="0.0"
     inkscape:pagecheckerboard="0"
     inkscape:deskcolor="#d1d1d1"
     inkscape:document-units="mm"
     inkscape:zoom="0.72604517"
     inkscape:cx="508.9215"
     inkscape:cy="24.103183"
     inkscape:window-width="1920"
     inkscape:window-height="1017"
     inkscape:window-x="-8"
     inkscape:window-y="-8"
     inkscape:window-maximized="1"
     inkscape:current-layer="layer1" />
  <defs
     id="defs1" />
  <g
     inkscape:label="Слой 1"
     inkscape:groupmode="layer"
     id="layer1"
     transform="translate(29.36875,-142.08125)">
    <path
       id="path1"
       d="M 217.39929,147.42336 H -29.280203 v 42.70975 H 217.39929 Z"
       style="fill:#264798;fill-opacity:1;fill-rule:evenodd;stroke:none;stroke-width:0.352778" />
    <path
       id="path2"
       d="m -9.8083868,157.91441 9.63612451,-0.0236 c 2.35091099,0 4.81894419,0.53587 4.84152199,3.23568 0.023283,3.81882 -7.3310746,3.88938 -7.3084969,5.42502 0.023636,1.35078 8.2172524,2.28282 8.9376246,10.24502 H -9.811209 v -1.46544 h 1.6093721 v -15.97307 l -1.6065499,0.004 z m 5.8423525,1.44357 c 2.2581304,-0.0921 4.63020808,0.43144 4.51626087,2.51424 -0.15733888,2.83951 -4.23650817,3.11997 -4.00402757,4.81965 0.1157111,0.88442 5.4239581,5.12375 4.7949553,8.63918 h -5.3071886 z"
       style="fill:#ffffff;fill-opacity:1;fill-rule:evenodd;stroke:none;stroke-width:0.352778" />
    <path
       id="path3"
       d="m 9.5487413,166.17075 c 0,3.06705 2.4126467,7.99112 6.7179467,7.51029 0.413456,-0.79234 0.585964,-1.48238 0.585964,-2.5146 0,-4.06612 -2.756253,-7.37235 -6.234994,-7.75194 -0.6903862,0.8957 -1.0689167,2.06692 -1.0689167,2.75625 m 3.7207467,-6.61352 c 1.929695,0 6.408208,2.78941 6.408208,8.23242 0,4.96076 -4.410074,10.16247 -6.234994,10.16247 -1.757186,0 -6.3394161,-3.75532 -6.3394161,-8.16434 0,-5.37422 4.1338501,-10.23055 6.1662021,-10.23055"
       style="fill:#ffffff;fill-opacity:1;fill-rule:nonzero;stroke:none;stroke-width:0.352778" />
    <path
       id="path4"
       d="m 26.122064,165.96388 c -1.722261,3.82411 -1.928636,4.99674 -1.928636,6.51087 0,0.93062 0.103717,1.5501 0.584906,2.58409 0.310797,0.65546 0.724252,0.99907 0.724252,1.34373 0,0.44733 -0.413455,0.41346 -0.655461,0.41346 -0.653697,0 -1.239308,-0.0346 -1.824919,-0.0346 h -1.619603 c -0.860778,0 -1.102783,-0.0353 -1.102783,-1.10279 0,-2.65183 1.619603,-5.33964 2.963333,-7.47536 1.068917,-1.72226 3.066344,-4.2037 3.066344,-5.68501 0,-0.48225 -0.103716,-0.6537 -0.207433,-1.03293 -0.03387,-0.13759 -0.06738,-0.27623 0,-0.41346 0.137936,-0.34466 0.448381,-0.30903 0.689328,-0.30903 h 3.100211 c 1.207205,0 1.102783,0.24024 1.067858,0.89464 -0.137583,2.65289 3.135841,11.61027 4.306711,14.19437 0.103364,0.20602 0.172155,0.37747 0.103364,0.61948 -0.103364,0.41345 -0.516114,0.31009 -0.92957,0.31009 -0.516819,0 -0.965552,-0.0353 -1.412522,-0.0353 -0.44838,0 -0.896408,0.0353 -1.377597,0.0353 -0.965553,0 -1.068917,0.17321 -2.515305,-5.02991 -0.930275,-3.34186 -1.722261,-6.27062 -2.032353,-8.30192 -0.310797,1.03294 -0.551744,1.51448 -1.000125,2.51425"
       style="fill:#ffffff;fill-opacity:1;fill-rule:nonzero;stroke:none;stroke-width:0.352778" />
    <path
       id="path5"
       d="m 41.827238,161.93311 c -0.274814,1.65453 -0.412397,3.65125 -0.412397,5.54778 0,5.06448 0.585611,6.61353 0.585611,8.30086 0,0.51788 0.137583,1.00013 -1.377597,1.00013 h -2.067984 c -1.274233,0 -1.308805,-1.13736 -1.308805,-9.16376 0,-6.13339 0.240594,-6.89045 1.308805,-6.89045 0.482248,0 0.9652,0.0349 1.447095,0.0349 1.928636,0 4.168422,-0.10336 8.680802,-0.10336 0.550686,0 1.619603,-0.10478 1.619603,0.72319 0,0.65335 -0.653345,1.48132 -2.170642,5.37422 l -1.446388,-0.13758 c 0.03387,-0.3108 0.20708,-1.24108 0.20708,-1.75825 0,-1.61784 -0.310444,-2.9277 -2.997553,-2.9277 z"
       style="fill:#ffffff;fill-opacity:1;fill-rule:nonzero;stroke:none;stroke-width:0.352778" />
    <path
       id="path6"
       d="m 51.756696,170.47644 c 0,1.10278 0.619831,2.34209 2.032353,2.34209 1.826683,0 2.929466,-1.58397 2.929466,-2.79047 0,-0.75706 -0.861483,-3.99556 -1.516944,-5.85541 -2.961922,3.20358 -3.444875,5.47688 -3.444875,6.30379 m 6.683022,-9.71374 c 0.276225,0 0.378883,0 0.413455,0.20532 0.06914,0.44838 0,0.62089 0.2413,1.61996 0.240948,0.96414 1.067859,4.2037 1.481314,5.54743 0.2413,0.92957 1.516239,5.16607 1.894417,6.23499 0.448733,1.44639 0.758472,1.82492 0.758472,2.10079 0,0.27482 -0.309739,0.30974 -0.689681,0.30974 h -3.513666 c -0.516467,0 -0.343253,-0.99907 -1.688042,-5.20171 -0.964494,3.13479 -2.583038,5.5813 -5.443008,5.5813 -3.169708,0 -3.68688,-3.16971 -3.68688,-4.47957 0,-2.23838 2.205567,-4.82142 3.651955,-6.51016 1.895828,-2.23908 2.721681,-2.72133 2.721681,-3.34187 0,-0.75812 -0.343959,-1.27494 -0.343959,-1.8609 0,-0.27587 0.412398,-0.20532 0.68827,-0.20532 z"
       style="fill:#ffffff;fill-opacity:1;fill-rule:nonzero;stroke:none;stroke-width:0.352778" />
    <path
       id="path7"
       d="m 126.05155,175.46803 c -2.21192,-8.28005 -1.73143,-6.858 -2.72768,-12.01032 -2.32092,2.94005 -4.18253,8.09131 -4.18253,10.43693 0,1.37407 0.87947,1.57339 2.3174,1.57339 z m 2.42111,-16.12159 h -1.49154 c 0.40569,4.24709 2.70545,16.27434 3.83752,16.27434 0.35313,0 0.80997,-0.32385 1.24107,-0.32385 0.40605,0 0.7814,0.35102 0.7814,0.91793 0,0.53904 -0.5655,1.2132 -0.91616,3.12808 -0.16193,0.83573 -0.18944,2.23767 -1.02553,2.23767 -0.67239,0 -0.75353,-0.6731 -0.83432,-1.18639 -0.51223,-3.45228 -2.58974,-3.61315 -4.58399,-3.61315 h -2.75167 c -1.86161,0 -4.0446,-0.24307 -4.93642,2.21086 -0.37747,1.02482 -0.45755,2.58868 -1.32115,2.58868 -0.64594,0 -0.72708,-0.80892 -0.78176,-1.26647 -0.40498,-3.12949 -1.07738,-3.12949 -1.07738,-4.2351 0,-0.70132 0.75353,-0.78211 1.05128,-0.78211 0.48401,0 0.61948,0.10795 0.96978,0.10795 0.64806,0 0.78176,-0.6477 0.86255,-1.02446 0.24271,-1.13207 0.24271,-3.88338 2.72556,-8.60214 1.21355,-2.29305 2.39642,-3.51084 2.39642,-5.2652 0,-0.58385 -0.26353,-1.16664 -1.58856,-1.16664 h -1.45697 v -1.44392 h 8.89987 z"
       style="fill:#ffffff;fill-opacity:1;fill-rule:nonzero;stroke:none;stroke-width:0.352778" />
    <path
       id="path8"
       d="m 138.87591,165.99228 v 4.3434 c 0,0.64311 0.0219,1.19486 0.0677,1.65417 0.0469,0.45967 0.10548,0.88548 0.17357,1.27635 0.0684,0.39053 0.127,0.78141 0.1711,1.17123 0.0462,0.39087 0.0716,0.83784 0.0716,1.34479 0,0.1845 -0.0141,0.33902 -0.0349,0.46496 -0.0243,0.12664 -0.0998,0.23001 -0.22508,0.31079 -0.12629,0.0804 -0.31079,0.13688 -0.5528,0.17181 -0.23989,0.0335 -0.57997,0.0515 -1.01635,0.0515 h -1.61819 c -0.25541,0 -0.46179,-0.0744 -0.62266,-0.22331 -0.16086,-0.14957 -0.28645,-0.53551 -0.37853,-1.15534 -0.0924,-0.62054 -0.14993,-1.53953 -0.1725,-2.75837 -0.0236,-1.21744 -0.0346,-2.89454 -0.0346,-5.03202 0,-1.60761 0.018,-2.87232 0.0526,-3.79237 0.0328,-0.91828 0.097,-1.60831 0.18909,-2.06798 0.0914,-0.45861 0.21307,-0.74577 0.36195,-0.86148 0.14887,-0.11501 0.34925,-0.17251 0.60466,-0.17251 0.18238,0 0.35419,0.006 0.51505,0.018 0.16087,0.012 0.33408,0.0169 0.51682,0.0169 0.2533,0 0.51153,-0.005 0.77611,-0.0169 0.26564,-0.0123 0.52247,-0.0282 0.77682,-0.0519 h 0.24095 c 0.25223,0 0.41804,0.0462 0.49882,0.13829 0.0804,0.0907 0.12277,0.19509 0.12277,0.31009 0,0.11466 -0.019,0.23531 -0.0536,0.3616 -0.0339,0.12594 -0.0621,0.25788 -0.0864,0.39652 l -0.27623,2.68852 5.48323,3.03319 c 0,-1.67746 0.0212,-2.98168 0.067,-3.91302 0.0473,-0.93027 0.12241,-1.6129 0.22436,-2.04999 0.10337,-0.43603 0.23531,-0.70061 0.39758,-0.79304 0.15981,-0.0921 0.3676,-0.13829 0.61913,-0.13829 0.1838,0 0.35595,0.006 0.51717,0.018 0.16087,0.012 0.33408,0.0169 0.51682,0.0169 0.25259,0 0.51823,-0.005 0.7941,-0.0169 0.27658,-0.0123 0.53834,-0.0282 0.79199,-0.0519 h 0.24024 c 0.22966,0 0.38523,0.0575 0.46496,0.17216 0.0811,0.115 0.12171,0.2413 0.12171,0.37888 0,0.43674 -0.0286,0.74754 -0.085,0.93134 -0.0582,0.1845 -0.127,0.43603 -0.20814,0.75776 -0.0801,0.32209 -0.14887,0.81562 -0.20602,1.48132 -0.0565,0.6678 -0.0875,1.68945 -0.0875,3.06916 0,1.28623 0.031,2.35515 0.0875,3.2064 0.0571,0.84949 0.12065,1.57268 0.18909,2.17064 0.0688,0.59796 0.13194,1.12078 0.18838,1.56775 0.0582,0.44943 0.0875,0.90311 0.0875,1.36278 0,0.1845 -0.0113,0.33902 -0.0346,0.46496 -0.0219,0.12664 -0.0861,0.23001 -0.18944,0.31079 -0.10196,0.0804 -0.28152,0.13688 -0.53305,0.17181 -0.25435,0.0335 -0.59902,0.0515 -1.03505,0.0515 h -1.62066 c -0.34431,0 -0.59796,-0.0864 -0.75777,-0.25788 -0.16016,-0.17356 -0.28081,-0.53481 -0.36089,-1.08691 -0.0818,-0.55174 -0.12806,-1.33808 -0.14005,-2.36079 -0.01,-1.02164 -0.0282,-2.38442 -0.0494,-4.0841 z"
       style="fill:#ffffff;fill-opacity:1;fill-rule:nonzero;stroke:none;stroke-width:0.352778" />
    <path
       id="path9"
       d="m 171.68975,161.92482 c -0.1838,0.91899 -0.31715,1.82598 -0.39652,2.72344 -0.0811,0.89571 -0.12136,1.83833 -0.12136,2.82681 0,1.95333 0.0924,3.65302 0.27587,5.10117 0.1838,1.4485 0.27693,2.5153 0.27693,3.20569 0,0.32209 -0.0631,0.56762 -0.18944,0.74083 -0.12805,0.17286 -0.52458,0.25824 -1.19027,0.25824 h -1.99919 c -0.32314,0 -0.57432,-0.0854 -0.756,-0.25824 -0.18627,-0.17321 -0.31715,-0.57326 -0.39758,-1.20614 -0.0815,-0.63183 -0.13265,-1.55646 -0.15523,-2.77495 -0.0236,-1.21779 -0.036,-2.86209 -0.036,-4.92972 0,-1.65453 0.0293,-2.94675 0.0868,-3.87703 0.0575,-0.93063 0.145,-1.61396 0.25965,-2.05211 0.1143,-0.43603 0.25753,-0.70061 0.43074,-0.79304 0.1711,-0.09 0.36054,-0.13723 0.56762,-0.13723 h 10.96257 c 0.38947,0 0.70026,-0.005 0.92992,-0.0169 0.22931,-0.0113 0.4251,-0.0169 0.58596,-0.0169 0.22966,0 0.36725,0.0339 0.41417,0.10372 0.0451,0.0674 0.0691,0.21837 0.0691,0.44803 0,0.50588 -0.0282,0.90769 -0.0875,1.20544 -0.0561,0.29951 -0.11994,0.63853 -0.18873,1.01706 -0.0677,0.37959 -0.13335,0.86818 -0.18945,1.46614 -0.0582,0.5962 -0.0875,1.4351 -0.0875,2.51601 0,0.7807 0.007,1.44181 0.019,1.98156 0.0102,0.53939 0.0282,1.03399 0.0508,1.48131 0.0247,0.44909 0.0519,0.90311 0.0868,1.36243 0.0335,0.45967 0.0857,0.99942 0.15416,1.6196 0.0462,0.46073 0.0804,0.83361 0.10372,1.12077 0.0226,0.28752 0.0395,0.51718 0.0512,0.68933 0.013,0.17251 0.0183,0.30974 0.0183,0.41452 v 0.25823 c 0,0.18344 -0.127,0.2928 -0.3803,0.32738 -0.25259,0.0339 -0.57362,0.0508 -0.96414,0.0508 h -1.99919 c -0.32209,0 -0.56974,-0.0854 -0.74119,-0.25824 -0.17251,-0.17321 -0.30409,-0.57326 -0.39652,-1.20614 -0.0921,-0.63183 -0.14323,-1.55646 -0.15416,-2.77495 -0.0134,-1.21779 -0.018,-2.86209 -0.018,-4.92972 0,-0.91934 0.018,-1.80904 0.0508,-2.67088 0.0346,-0.86254 0.12136,-1.86655 0.25894,-3.01625 z"
       style="fill:#ffffff;fill-opacity:1;fill-rule:nonzero;stroke:none;stroke-width:0.352778" />
    <path
       id="path10"
       d="m 187.95989,162.82056 c -0.59902,0.89676 -0.98919,1.7526 -1.17263,2.56893 -0.18168,0.81562 -0.27552,1.74025 -0.27552,2.77424 0,1.01142 0.13793,1.94169 0.41381,2.79224 0.27516,0.85019 0.62477,1.59138 1.05304,2.2232 0.42368,0.63289 0.88794,1.12642 1.39453,1.48238 0.50518,0.35701 0.98813,0.53516 1.44744,0.53516 0.53023,0 0.97649,-0.25929 1.34479,-0.77717 0.36619,-0.51611 0.55069,-1.36102 0.55069,-2.5333 0,-0.75812 -0.12594,-1.59138 -0.37924,-2.49837 -0.25259,-0.9077 -0.59055,-1.79282 -1.01741,-2.65465 -0.42439,-0.86149 -0.92886,-1.64289 -1.51553,-2.34386 -0.58632,-0.70061 -1.20015,-1.22414 -1.84397,-1.5688 m -0.96449,11.47833 c 0.0677,0.62159 0.13123,1.19062 0.18838,1.70709 0.0575,0.51717 0.10372,1.03435 0.13829,1.55046 0.0339,0.51682 0.0642,1.05269 0.0868,1.60373 0.0215,0.55139 0.0328,1.15993 0.0328,1.82668 0,1.01036 -0.0628,1.81575 -0.18909,2.41335 -0.12594,0.59726 -0.2928,1.06257 -0.49812,1.39559 -0.20814,0.33267 -0.4438,0.5521 -0.70732,0.65476 -0.26564,0.10371 -0.52352,0.15522 -0.77505,0.15522 -0.18556,0 -0.36901,-0.0406 -0.55175,-0.1203 -0.1845,-0.0811 -0.27587,-0.17815 -0.27587,-0.2928 l 0.0159,-0.0868 c 0.0123,-0.0339 0.019,-0.10265 0.019,-0.20743 0,-0.10266 0.005,-0.25188 0.0159,-0.44697 0.0113,-0.19614 0.0169,-0.47766 0.0169,-0.8449 v -2.92947 c 0,-0.45967 -0.0169,-0.95391 -0.0519,-1.48202 -0.0349,-0.52952 -0.0744,-1.04634 -0.12065,-1.55222 -0.11465,-1.14794 -0.20531,-2.10749 -0.27587,-2.87796 -0.0684,-0.77011 -0.13088,-1.44251 -0.18909,-2.01577 -0.0564,-0.57468 -0.0963,-1.10949 -0.12065,-1.60302 -0.0226,-0.4953 -0.0339,-1.0407 -0.0339,-1.6376 0,-1.44815 0.24024,-2.7753 0.72425,-3.98145 0.48084,-1.2065 1.06327,-2.25249 1.74025,-3.1369 0.67804,-0.88406 1.38324,-1.57445 2.11984,-2.06798 0.73449,-0.49424 1.36631,-0.74119 1.89548,-0.74119 0.64417,0 1.32785,0.31644 2.05211,0.94756 0.72213,0.63183 1.38888,1.45415 1.99989,2.46521 0.60749,1.01142 1.11231,2.16041 1.51518,3.44664 0.40288,1.28729 0.60467,2.58516 0.60467,3.89502 0,1.12642 -0.13371,2.11984 -0.39617,2.98133 -0.2667,0.86254 -0.62089,1.58573 -1.07033,2.17275 -0.44803,0.58562 -0.96414,1.03364 -1.55081,1.34338 -0.58632,0.31009 -1.18922,0.46567 -1.80799,0.46567 -0.39158,0 -0.8061,-0.0744 -1.24283,-0.22331 -0.4371,-0.14993 -0.86184,-0.35595 -1.27635,-0.62089 -0.41346,-0.26458 -0.79834,-0.58102 -1.15323,-0.94826 -0.35702,-0.36725 -0.64912,-0.77012 -0.87877,-1.20721"
       style="fill:#ffffff;fill-opacity:1;fill-rule:nonzero;stroke:none;stroke-width:0.352778" />
    <path
       id="path11"
       d="m 155.89433,170.21891 c 0.0988,3.35139 1.99072,5.54108 4.61151,5.54108 1.22802,0 2.80353,-0.65193 4.2358,-2.01542 0.1704,-0.17039 0.35384,0.21943 0.49601,0.56339 0.0653,0.1524 -0.0243,0.24553 -0.17427,0.43391 -0.93028,1.14124 -2.98415,2.54459 -5.61799,2.54459 -7.79815,0 -8.19644,-6.73523 -8.2296,-7.86412 -0.0325,-0.36372 -0.0325,-0.76165 0,-1.12713 0.19897,-3.38455 4.67854,1.79106 4.67854,1.9237"
       style="fill:#ffffff;fill-opacity:1;fill-rule:nonzero;stroke:none;stroke-width:0.352778" />
    <path
       id="path12"
       d="m 163.02774,164.41254 c -0.66287,0 -1.3589,-0.23177 -2.35514,-1.16134 -0.79693,-0.76271 -1.32751,-1.79176 -2.25531,-1.79176 -2.25743,0 -2.48991,3.94934 -2.55482,6.80191 -7e-4,0.40675 0.0321,1.82491 0.0321,1.95756 0.0991,3.35139 1.99073,5.54108 4.61151,5.54108 1.22802,0 1.82669,1.52647 -1.06115,1.52647 -7.79745,0 -8.19573,-6.73523 -8.22854,-7.86412 -0.0332,-0.36442 -0.0332,-0.76271 0,-1.12713 0.19861,-3.38561 2.38901,-8.02993 7.10036,-8.02993 1.59208,0 3.47274,0.48225 4.681,1.52647 0.079,0.0497 0.99272,2.62079 0.03,2.62079"
       style="fill:#ffffff;fill-opacity:1;fill-rule:nonzero;stroke:none;stroke-width:0.352778" />
    <path
       id="path13"
       d="m 163.31575,164.98168 -8.5912,5.16149 -0.60184,-1.00118 8.61872,-5.10858 z"
       style="fill:#ffffff;fill-opacity:1;fill-rule:nonzero;stroke:none;stroke-width:0.352778" />
    <path
       id="path14"
       d="m 158.43821,161.32538 c 1.02341,0.41416 1.78788,1.28623 2.33327,2.85821 0.22225,0.64664 -0.0688,1.07244 -0.78175,1.46896 -0.0734,0.0413 1.13488,-0.20355 1.15076,-0.11888 0.0988,0.45296 1.10208,0.0924 2.01154,-0.45368 1.23542,-0.74295 1.61889,-0.98813 1.29293,-1.5247 -0.8001,-1.32115 -1.66864,-1.94345 -1.66864,-1.94345 0,0 -2.38055,-0.9966 -4.33811,-0.28646"
       style="fill:#ffffff;fill-opacity:1;fill-rule:nonzero;stroke:none;stroke-width:0.352778" />
    <path
       id="path15"
       d="m -29.36875,192.79905 h 246.67844 v 2.66982 H -29.36875 Z"
       style="fill:#264798;fill-opacity:1;fill-rule:evenodd;stroke:none;stroke-width:0.352778" />
    <path
       id="path16"
       d="m -29.36875,142.08125 h 246.67844 v 2.66982 H -29.36875 Z"
       style="fill:#264798;fill-opacity:1;fill-rule:evenodd;stroke:none;stroke-width:0.352778" />
    <path
       id="path17"
       d="m 89.091169,151.42471 c 9.582502,0 17.352431,7.76993 17.352431,17.35067 0,9.58074 -7.769929,17.35067 -17.352431,17.35067 -9.57968,0 -17.349963,-7.76993 -17.349963,-17.35067 0,-9.58074 7.770283,-17.35067 17.349963,-17.35067"
       style="fill:#ffffff;fill-opacity:1;fill-rule:evenodd;stroke:none;stroke-width:0.352778" />
    <path
       id="path18"
       d="m 89.092896,184.79216 c 8.819797,0 16.015404,-7.19455 16.015404,-16.01611 0,-8.82086 -7.195607,-16.01646 -16.015404,-16.01646 -8.822972,0 -16.017169,7.1956 -16.017169,16.01646 0,8.82156 7.194197,16.01611 16.017169,16.01611 m -0.0018,-1.0668 c 8.232069,0 14.948244,-6.71548 14.948244,-14.9486 0,-8.23207 -6.716175,-14.94755 -14.948244,-14.94755 -8.23348,0 -14.948605,6.71548 -14.948605,14.94755 0,8.23312 6.715125,14.9486 14.948605,14.9486"
       style="fill:#264798;fill-opacity:1;fill-rule:evenodd;stroke:none;stroke-width:0.352778" />
    <path
       id="path19"
       d="m 86.864613,164.79873 c 0.184503,-0.57256 -0.452967,-0.82585 -0.890764,-0.85901 l 4.055886,-1.2626 -0.555625,2.08774 h 0.757061 l 1.009297,-3.46921 c 0.219428,-0.79093 -0.235302,-1.46438 -2.035527,-1.64994 l 7.054144,0.0169 c 4.829885,0 4.442885,5.2197 -0.169686,5.54002 2.474736,0.20144 6.615291,1.8863 6.615291,4.34411 0,2.10467 -2.876553,4.61327 -9.847088,4.61327 H 82.083769 c 0.976489,-0.25224 1.970969,-0.3877 2.324805,-1.51518 l 2.287411,-7.07214 c -1.985786,0.0508 -4.898319,0.6403 -6.615288,1.53212 -1.262945,0.65616 -2.323042,1.71767 -2.138539,3.35174 0.168628,1.51518 1.886303,2.52448 3.266722,2.8448 v 0.16863 c -2.154767,-0.21872 -5.168194,-0.90911 -5.622925,-2.67759 -1.278819,-4.91631 9.091083,-5.99369 11.278658,-5.99369 m 9.394472,-1.9371 c -0.470959,1.19591 -2.121958,1.76847 -3.451225,1.91911 l 1.211792,-4.20829 c 1.867252,-0.13582 2.809874,0.84067 2.239433,2.28918 m 3.720747,7.03827 c -0.355247,2.02071 -4.412897,3.11608 -5.911144,3.28365 5.034138,-1.24601 6.077302,-5.52309 0.640291,-7.4422 4.983339,0.92569 5.521321,2.82893 5.270853,4.15855 m -4.663369,-3.14925 c 2.169583,1.8863 0.08255,6.096 -4.916664,6.60153 l 2.221441,-7.67786 c 1.364545,0.21873 2.087739,0.5387 2.695223,1.07633 m -8.468783,6.70207 2.440869,-7.96466 h 0.724253 l -2.341033,7.96466 z"
       style="fill:#264798;fill-opacity:1;fill-rule:evenodd;stroke:none;stroke-width:0.352778" />
  </g>
</svg>
